# File created by Blade
# Date/Time:  Tue Jan 27 20:07:51 2015
# Frame Rate: 120.000 fps
#------------------------------------------------------
:FULLY-SPECIFIED
:DEGREES
2179
root 6.517215 32.097262 -3.343263 -3.525148 -20.464035 -5.236930
Spine 1.201091 10.204104 1.706708
Head 29.946575 -10.445570 -1.142545
LeftShoulder -16.537894 3.857711 26.467572
LeftArm -9.622319 -21.757071 -75.114979
LeftForeArm -17.078431 -0.000000 119.671872
LeftHand 8.618178 0.000000 -6.914373
LeftHandThumb1 -26.253704 0.000000 33.147579
RightShoulder -18.439979 -18.984018 -22.599539
RightArm 11.433381 -17.289816 85.593856
RightForeArm -15.754940 -0.000000 21.793335
RightHand 18.343002 -0.000000 -0.131790
RightHandThumb1 -24.326973 -0.000000 -32.862282
LeftUpLeg 14.032525 5.111756 -6.038705
LeftLeg -3.807557 -0.000000 0.000000
LeftFoot -17.346238 14.481169 -15.262117
LeftToeBase 22.348680 -0.000000 -0.000000
RightUpLeg -24.730480 -50.822752 -16.855292
RightLeg 96.614784 -0.000000 -0.000000
RightFoot 22.877387 -26.074298 19.647691
RightToeBase 18.542736 -0.000000 -0.000000
2180
root 6.526138 32.097032 -3.356548 -3.506837 -20.633117 -5.260414
Spine 1.271453 10.269705 1.724044
Head 29.898287 -10.450129 -1.157024
LeftShoulder -16.539063 3.879672 26.468162
LeftArm -9.622863 -21.773528 -75.081177
LeftForeArm -17.200852 0.000000 119.675882
LeftHand 8.570645 -0.000000 -6.901267
LeftHandThumb1 -26.253704 0.000000 33.147579
RightShoulder -18.420103 -19.005537 -22.598709
RightArm 11.500029 -17.163135 85.596541
RightForeArm -15.896161 -0.000000 21.748352
RightHand 18.458535 -0.000000 0.054864
RightHandThumb1 -24.326973 -0.000000 -32.862282
LeftUpLeg 14.010077 5.246976 -6.030145
LeftLeg -3.820019 -0.000000 0.000000
LeftFoot -17.310097 14.660839 -15.103243
LeftToeBase 21.650700 -0.000000 -0.000000
RightUpLeg -25.579772 -51.187657 -16.244431
RightLeg 94.386916 -0.000000 -0.000000
RightFoot 21.459714 -26.292992 19.629710
RightToeBase 17.743447 -0.000000 -0.000000
2181
root 6.533437 32.097638 -3.372436 -3.459976 -20.798850 -5.291486
Spine 1.312688 10.354872 1.731947
Head 29.874288 -10.473169 -1.143963
LeftShoulder -16.517533 3.892933 26.479853
LeftArm -9.640373 -21.812579 -75.046022
LeftForeArm -17.258769 -0.000000 119.680373
LeftHand 8.601046 -0.000000 -6.844122
LeftHandThumb1 -26.253704 0.000000 33.147579
RightShoulder -18.415498 -19.009133 -22.580794
RightArm 11.514594 -17.078192 85.599075
RightForeArm -15.954589 -0.000000 21.723506
RightHand 18.539594 -0.000000 0.113875
RightHandThumb1 -24.326973 -0.000000 -32.862282
LeftUpLeg 13.989045 5.269905 -6.041860
LeftLeg -3.916113 -0.000000 0.000000
LeftFoot -17.263691 14.838810 -15.108063
LeftToeBase 21.526398 -0.000000 -0.000000
RightUpLeg -26.477246 -51.558383 -15.603349
RightLeg 92.155144 -0.000000 -0.000000
RightFoot 19.812747 -26.460440 19.678140
RightToeBase 17.166165 -0.000000 -0.000000
2182
root 6.544158 32.097450 -3.391797 -3.383681 -20.988062 -5.309968
Spine 1.324949 10.461843 1.730564
Head 29.836734 -10.509657 -1.133239
LeftShoulder -16.518333 3.934581 26.494439
LeftArm -9.601835 -21.911022 -75.089292
LeftForeArm -17.285095 -0.000000 119.659699
LeftHand 8.614210 -0.000000 -6.906352
LeftHandThumb1 -26.253704 0.000000 33.147579
RightShoulder -18.405024 -18.986974 -22.578087
RightArm 11.488667 -17.050140 85.591275
RightForeArm -15.932225 -0.000000 21.734400
RightHand 18.563172 -0.000000 0.074839
RightHandThumb1 -24.326973 -0.000000 -32.862282
LeftUpLeg 13.894277 5.453569 -6.033328
LeftLeg -3.934267 -0.000000 0.000000
LeftFoot -17.249668 14.880389 -15.065897
LeftToeBase 21.492920 -0.000000 -0.000000
RightUpLeg -27.495137 -51.872022 -14.884715
RightLeg 89.893848 -0.000000 -0.000000
RightFoot 18.396773 -26.765378 19.526845
RightToeBase 17.891153 -0.000000 -0.000000
2183
root 6.554844 32.094458 -3.405753 -3.349729 -21.174990 -5.292450
Spine 1.361499 10.558709 1.695850
Head 29.803615 -10.521808 -1.113044
LeftShoulder -16.532939 3.960804 26.549446
LeftArm -9.607061 -21.933949 -75.085514
LeftForeArm -17.375483 -0.000000 119.608835
LeftHand 8.694752 -0.000000 -6.870229
LeftHandThumb1 -26.253704 0.000000 33.147579
RightShoulder -18.373772 -18.984437 -22.582545
RightArm 11.464011 -16.997015 85.595090
RightForeArm -15.926352 -0.000000 21.747629
RightHand 18.518734 0.000000 0.008097
RightHandThumb1 -24.326973 -0.000000 -32.862282
LeftUpLeg 13.800311 5.913871 -5.986417
LeftLeg -3.863439 -0.000000 0.000000
LeftFoot -17.196369 14.557661 -15.005695
LeftToeBase 21.461090 -0.000000 -0.000000
RightUpLeg -28.457087 -52.133819 -14.262141
RightLeg 87.621838 -0.000000 -0.000000
RightFoot 17.518828 -26.820372 19.130441
RightToeBase 17.864232 -0.000000 -0.000000
2184
root 6.565105 32.093498 -3.423492 -3.312500 -21.344631 -5.288587
Spine 1.410155 10.644581 1.670508
Head 29.785469 -10.530301 -1.081101
LeftShoulder -16.544077 3.953829 26.576339
LeftArm -9.611747 -21.989920 -75.052624
LeftForeArm -17.451322 -0.000000 119.567297
LeftHand 8.697015 -0.000000 -6.879891
LeftHandThumb1 -26.253704 0.000000 33.147579
RightShoulder -18.348180 -18.951865 -22.576598
RightArm 11.431957 -16.926444 85.606267
RightForeArm -15.980670 -0.000000 21.723071
RightHand 18.509727 0.000000 -0.004672
RightHandThumb1 -24.326973 -0.000000 -32.862282
LeftUpLeg 13.727427 6.094647 -5.990627
LeftLeg -3.874315 -0.000000 0.000000
LeftFoot -17.201413 14.459343 -15.077695
LeftToeBase 22.124834 -0.000000 -0.000000
RightUpLeg -29.388060 -52.358936 -13.627929
RightLeg 85.291563 -0.000000 -0.000000
RightFoot 16.872662 -26.708435 18.582166
RightToeBase 18.163624 -0.000000 -0.000000
2185
root 6.574541 32.090719 -3.435337 -3.348508 -21.441564 -5.259128
Spine 1.530914 10.652254 1.628061
Head 29.764653 -10.533735 -1.054937
LeftShoulder -16.551810 3.904825 26.622539
LeftArm -9.668104 -22.046816 -74.992416
LeftForeArm -17.539655 -0.000000 119.526939
LeftHand 8.718326 -0.000000 -6.890094
LeftHandThumb1 -26.253704 0.000000 33.147579
RightShoulder -18.346615 -18.912861 -22.575161
RightArm 11.376414 -17.050186 85.558491
RightForeArm -15.824448 -0.000000 21.814121
RightHand 18.467251 -0.000000 -0.042719
RightHandThumb1 -24.326973 -0.000000 -32.862282
LeftUpLeg 13.727883 6.130816 -6.039317
LeftLeg -3.884100 -0.000000 0.000000
LeftFoot -17.161997 14.557510 -15.009535
LeftToeBase 22.141627 -0.000000 -0.000000
RightUpLeg -30.228244 -52.717111 -13.142918
RightLeg 82.954052 -0.000000 -0.000000
RightFoot 16.681729 -26.543235 17.459986
RightToeBase 18.850160 -0.000000 -0.000000
2186
root 6.584492 32.090642 -3.451659 -3.337794 -21.602313 -5.267860
Spine 1.620100 10.732170 1.642959
Head 29.774639 -10.546557 -1.084370
LeftShoulder -16.534138 3.892877 26.643900
LeftArm -9.707630 -22.122273 -74.958666
LeftForeArm -17.583591 0.000000 119.478277
LeftHand 8.769930 -0.000000 -6.854482
LeftHandThumb1 -26.253704 0.000000 33.147579
RightShoulder -18.359378 -18.938162 -22.558360
RightArm 11.466592 -16.911427 85.557033
RightForeArm -16.009082 0.000000 21.668855
RightHand 18.678806 -0.000000 0.155191
RightHandThumb1 -24.326973 -0.000000 -32.862282
LeftUpLeg 13.698414 6.197046 -6.057856
LeftLeg -3.915170 -0.000000 0.000000
LeftFoot -17.119536 14.633856 -15.008560
LeftToeBase 22.644539 -0.000000 -0.000000
RightUpLeg -31.065067 -52.954830 -12.530110
RightLeg 80.454078 -0.000000 -0.000000
RightFoot 16.304866 -26.460278 16.717099
RightToeBase 16.528295 -0.000000 -0.000000
2187
root 6.594361 32.091323 -3.472305 -3.279257 -21.771270 -5.299834
Spine 1.661972 10.818576 1.673500
Head 29.799941 -10.524687 -1.097711
LeftShoulder -16.513148 3.869935 26.663395
LeftArm -9.775385 -22.190084 -74.901469
LeftForeArm -17.627145 -0.000000 119.436348
LeftHand 8.753858 -0.000000 -6.797037
LeftHandThumb1 -26.253704 0.000000 33.147579
RightShoulder -18.350466 -18.886271 -22.553850
RightArm 11.413753 -16.944871 85.519822
RightForeArm -15.887092 -0.000000 21.676036
RightHand 18.421512 -0.000000 -0.109992
RightHandThumb1 -24.326973 -0.000000 -32.862282
LeftUpLeg 13.614400 6.248041 -6.059136
LeftLeg -3.915214 -0.000000 0.000000
LeftFoot -17.157977 14.832624 -14.975171
LeftToeBase 22.071289 -0.000000 -0.000000
RightUpLeg -31.893751 -53.073066 -11.883633
RightLeg 77.891226 -0.000000 -0.000000
RightFoot 15.264451 -26.468511 17.097510
RightToeBase 16.832345 -0.000000 -0.000000
2188
root 6.605150 32.093478 -3.494002 -3.226836 -21.923567 -5.340426
Spine 1.719151 10.886734 1.729463
Head 29.843076 -10.451514 -1.127612
LeftShoulder -16.490663 3.868863 26.666601
LeftArm -9.809450 -22.268937 -74.880340
LeftForeArm -17.655565 -0.000000 119.380357
LeftHand 8.730232 -0.000000 -6.729788
LeftHandThumb1 -26.253704 0.000000 33.147579
RightShoulder -18.321837 -18.842431 -22.566145
RightArm 11.387611 -16.793979 85.539025
RightForeArm -16.053584 -0.000000 21.602626
RightHand 18.611919 -0.000000 0.115818
RightHandThumb1 -24.326973 -0.000000 -32.862282
LeftUpLeg 13.532756 6.315651 -6.047861
LeftLeg -3.913195 -0.000000 0.000000
LeftFoot -17.172692 14.971602 -14.961341
LeftToeBase 22.050774 -0.000000 -0.000000
RightUpLeg -32.649401 -53.189667 -11.278860
RightLeg 75.206295 -0.000000 -0.000000
RightFoot 14.252472 -26.523639 17.834083
RightToeBase 18.419259 -0.000000 -0.000000
2189
root 6.619323 32.095952 -3.516962 -3.163806 -22.076308 -5.390666
Spine 1.783420 10.944010 1.809925
Head 29.874987 -10.404522 -1.160571
LeftShoulder -16.509220 3.899294 26.649458
LeftArm -9.788729 -22.316455 -74.879900
LeftForeArm -17.694894 -0.000000 119.310306
LeftHand 8.729870 0.000000 -6.675286
LeftHandThumb1 -26.253704 0.000000 33.147579
RightShoulder -18.285011 -18.789122 -22.575335
RightArm 11.359117 -16.728113 85.500241
RightForeArm -16.123055 -0.000000 21.564632
RightHand 18.643716 0.000000 0.098298
RightHandThumb1 -24.326973 -0.000000 -32.862282
LeftUpLeg 13.437451 6.365631 -6.032060
LeftLeg -3.901970 -0.000000 0.000000
LeftFoot -17.189450 15.081848 -14.972274
LeftToeBase 22.032786 -0.000000 -0.000000
RightUpLeg -33.345397 -53.254509 -10.679372
RightLeg 72.419039 -0.000000 -0.000000
RightFoot 14.031400 -26.280007 17.699068
RightToeBase 18.486941 -0.000000 -0.000000
2190
root 6.628811 32.101576 -3.543003 -3.071244 -22.215482 -5.479462
Spine 1.824346 10.984252 1.913972
Head 29.935922 -10.374646 -1.203015
LeftShoulder -16.519194 3.876883 26.654921
LeftArm -9.844893 -22.328881 -74.839635
LeftForeArm -17.745607 0.000000 119.231822
LeftHand 8.832847 -0.000000 -6.695822
LeftHandThumb1 -26.253704 0.000000 33.147579
RightShoulder -18.246549 -18.755519 -22.569929
RightArm 11.345845 -16.720189 85.451395
RightForeArm -16.119077 -0.000000 21.561945
RightHand 18.573378 -0.000000 0.049949
RightHandThumb1 -24.326973 -0.000000 -32.862282
LeftUpLeg 13.310705 6.465762 -5.970345
LeftLeg -3.871320 -0.000000 0.000000
LeftFoot -17.276605 15.183349 -15.045434
LeftToeBase 22.185022 -0.000000 -0.000000
RightUpLeg -33.940560 -53.256491 -10.089217
RightLeg 69.511073 -0.000000 -0.000000
RightFoot 14.021481 -25.833375 17.579857
RightToeBase 18.641353 -0.000000 -0.000000
2191
root 6.641640 32.108082 -3.571541 -2.944112 -22.364065 -5.571563
Spine 1.825748 11.070107 2.020014
Head 30.019634 -10.382919 -1.241377
LeftShoulder -16.508873 3.909932 26.656597
LeftArm -9.816460 -22.328317 -74.861401
LeftForeArm -17.759285 0.000000 119.137787
LeftHand 8.921028 -0.000000 -6.658360
LeftHandThumb1 -26.253704 0.000000 33.147579
RightShoulder -18.239334 -18.772682 -22.531925
RightArm 11.395060 -16.702350 85.366452
RightForeArm -16.127404 -0.000000 21.481560
RightHand 18.610563 0.000000 -0.021783
RightHandThumb1 -24.326973 -0.000000 -32.862282
LeftUpLeg 13.144863 6.581896 -5.911596
LeftLeg -3.830112 -0.000000 0.000000
LeftFoot -17.293001 15.314440 -14.972744
LeftToeBase 21.869041 -0.000000 -0.000000
RightUpLeg -34.524273 -53.211577 -9.456409
RightLeg 66.480560 -0.000000 -0.000000
RightFoot 14.111670 -25.330180 17.450683
RightToeBase 17.767411 -0.000000 -0.000000
